<?xml version="1.0" encoding="UTF-8" standalone="no"?><!-- Generator: Gravit.io --><svg xmlns="http://www.w3.org/2000/svg" xmlns:xlink="http://www.w3.org/1999/xlink" style="isolation:isolate" viewBox="0 0 32 32" width="32pt" height="32pt"><defs><clipPath id="_clipPath_ROjrv618UcpmJbpMfxiltS0LnPwmbpQ7"><rect width="32" height="32"/></clipPath></defs><g clip-path="url(#_clipPath_ROjrv618UcpmJbpMfxiltS0LnPwmbpQ7)"><path d=" M 4.153 31.818 C 3.72 31.818 3.303 31.742 2.935 31.577 C 2.005 31.183 1.111 30.483 1.28 29.945 Q 1.45 29.408 1.919 28.894 L 16.364 17.229 Q 16.435 17.103 16.434 16.926 Q 16.433 16.748 16.374 16.583 L 1.46 4.365 C 0.989 3.315 1.989 2.447 2.935 2.053 C 3.865 1.659 5.051 1.761 6.189 2.358 L 29.544 14.541 C 30.634 15.113 31.259 15.951 31.259 16.828 C 31.259 17.717 30.634 18.543 29.544 19.114 L 6.189 31.297 C 5.516 31.628 4.81 31.818 4.153 31.818 L 4.153 31.818 Z  M 1.778 30.792" fill="rgb(89,45,70)"/></g></svg>