<?xml version="1.0" encoding="UTF-8" standalone="no"?><!-- Generator: Gravit.io --><svg xmlns="http://www.w3.org/2000/svg" xmlns:xlink="http://www.w3.org/1999/xlink" style="isolation:isolate" viewBox="0 0 32 32" width="32pt" height="32pt"><defs><clipPath id="_clipPath_Pr0eNjcdwieUWakRefOd4Uo3XBTm4SGb"><rect width="32" height="32"/></clipPath></defs><g clip-path="url(#_clipPath_Pr0eNjcdwieUWakRefOd4Uo3XBTm4SGb)"><path d=" M 28.366 31.818 C 28.798 31.818 29.215 31.742 29.584 31.577 C 30.514 31.183 31.408 30.483 31.239 29.945 Q 31.069 29.408 30.6 28.894 L 16.155 17.229 Q 16.083 17.103 16.084 16.926 Q 16.086 16.748 16.145 16.583 L 31.059 4.365 C 31.53 3.315 30.53 2.447 29.584 2.053 C 28.654 1.659 27.468 1.761 26.33 2.358 L 2.975 14.541 C 1.884 15.113 1.259 15.951 1.259 16.828 C 1.259 17.717 1.884 18.543 2.975 19.114 L 26.33 31.297 C 27.003 31.628 27.708 31.818 28.366 31.818 L 28.366 31.818 Z  M 30.74 30.792" fill="rgb(89,45,70)"/></g></svg>